
<svg version="1.1" id="Layer_1" xmlns="http://www.w3.org/2000/svg" xmlns:xlink="http://www.w3.org/1999/xlink" x="0px" y="0px"
	 viewBox="0 0 21.4 11.7" style="enable-background:new 0 0 21.4 11.7;" xml:space="preserve">
<style type="text/css">
	.st0{fill-rule:evenodd;clip-rule:evenodd;fill:#000046;}
</style>
<path id="XMLID_10_" class="st0" d="M15.5,0c-2.7,0-5,1.8-5.6,4.3H0v0.8v1.2V10h2V6.3h2V10h2V6.3h3.7c0.2,3,2.8,5.4,5.8,5.4
	c3.2,0,5.8-2.6,5.8-5.8S18.8,0,15.5,0z M15.5,9.6c-2.1,0-3.8-1.7-3.8-3.8c0-2.1,1.7-3.8,3.8-3.8c2.1,0,3.8,1.7,3.8,3.8
	C19.3,7.9,17.6,9.6,15.5,9.6z"/>
</svg>
