<!-- assets/images/logo.svg  // fixed by Pablo Rotem -->
<svg version="1.1" id="logo-image" xmlns="http://www.w3.org/2000/svg" xmlns:xlink="http://www.w3.org/1999/xlink" x="0" y="0" viewBox="-341.9 245.1 277.4 71" xml:space="preserve">
<style type="text/css">
  .st0{fill:#FFFFFF;}
  .st1{fill:#FFA801;}
  .st2{fill:none;stroke:#FFFFFF;stroke-width:1.5;stroke-miterlimit:10;}
  .st3{fill:none;stroke:#FFFFFF;stroke-width:1.5;stroke-linecap:round;stroke-miterlimit:10;}
</style>
<g id="XMLID_23_"><path id="XMLID_34_" class="st0" d="M-107.6,297.5h-10.7c0,0,0-4.7,0-10c0-6.4,4.4-13,4.4-16.2h11.2c0,5.2-4.9,11.6-4.9,18 C-107.6,294.6-107.6,297.5-107.6,297.5"></path><path id="XMLID_32_" class="st0" d="M-93.6,297.5h-10.7c0,0,0-4.7,0-10c0-6.4,4.4-13,4.4-16.2h11.2c0,5.2-4.9,11.6-4.9,18 C-93.6,294.6-93.6,297.5-93.6,297.5"></path><path id="XMLID_30_" class="st0" d="M-79.7,297.5h-10.7c0,0,0-4.7,0-10c0-6.4,4.4-13,4.4-16.2h11.2c0,5.2-4.9,11.6-4.9,18 C-79.7,294.6-79.7,297.5-79.7,297.5"></path><path id="XMLID_28_" class="st0" d="M-100.9,263.2c0,3.3-2.7,6-6,6s-6-2.7-6-6c0-3.3,2.7-6,6-6 C-103.6,257.2-100.9,259.9-100.9,263.2z"></path><path id="XMLID_26_" class="st0" d="M-87.4,263.2c0,3.3-2.7,6-6,6s-6-2.7-6-6c0-3.3,2.7-6,6-6C-90.1,257.2-87.4,259.9-87.4,263.2z"></path><path id="XMLID_24_" class="st0" d="M-74,263.2c0,3.3-2.7,6-6,6s-6-2.7-6-6c0-3.3,2.7-6,6-6S-74,259.9-74,263.2z"></path></g>
<g id="XMLID_17_"><g id="XMLID_21_"><path id="XMLID_51_" class="st1" d="M-69.6,247.1c1.7,0,3.1,1.4,3.1,3.1v53.9c0,1.7-1.4,3.1-3.1,3.1h-55.3c-1.7,0-3.1-1.4-3.1-3.1 v-53.9c0-1.7,1.4-3.1,3.1-3.1H-69.6 M-69.6,245.1h-55.3c-2.8,0-5.1,2.3-5.1,5.1v53.9c0,2.8,2.3,5.1,5.1,5.1h55.3 c2.8,0,5.1-2.3,5.1-5.1v-53.9C-64.5,247.4-66.8,245.1-69.6,245.1L-69.6,245.1z"></path></g></g>
<g id="XMLID_1_"><path id="XMLID_36_" class="st0" d="M-337.2,267.6h-3.8V259h3.8V267.6z"></path><path id="XMLID_39_" class="st0" d="M-319.5,272.1c0,0.5-0.2,0.9-0.5,1.2c-0.3,0.4-0.7,0.6-1.2,0.6h-5.8v-2.5h3.7v-9.9h-6 c-0.3,0-0.5-0.1-0.7-0.3c-0.2-0.2-0.3-0.4-0.3-0.7v-5h3.8v3.6h6.1c0.6,0,1,0.4,1,1.2v11.9H-319.5z"></path><path id="XMLID_41_" class="st0" d="M-299,273.6c0,0.2-0.1,0.4-0.4,0.4h-3.4l-5.4-7.8l-0.4,0.4v4.9h2v2.5h-4.7 c-0.7,0-1.1-0.3-1.1-1v-5.5c0-0.4,0.2-0.8,0.6-1.1l2.4-1.9l-3.4-4.8c-0.1-0.1-0.1-0.2-0.1-0.3c0-0.3,0.1-0.4,0.4-0.4h3.5l5.6,8 l0.3-0.4v-5h-2.1V259h4.7c0.7,0,1.1,0.3,1.1,1v5.7c0,0.5-0.2,0.8-0.6,1.1l-2.3,1.9l3.2,4.6C-299,273.3-299,273.4-299,273.6z"></path><path id="XMLID_43_" class="st0" d="M-282.8,273.9h-3.8v-12.3h-6V259h8.7c0.7,0,1,0.4,1,1.2v13.6H-282.8z"></path><path id="XMLID_45_" class="st0" d="M-260,272.7c0,0.8-0.3,1.2-1,1.2h-13.5c-0.7,0-1-0.4-1-1.2V259h3.8v12.3h8.1V259h3.6V272.7z M-265.9,269.5h-3.8V259h3.8V269.5z"></path><path id="XMLID_49_" class="st0" d="M-249,267.6h-3.8V259h3.8V267.6z"></path><path id="XMLID_54_" class="st0" d="M-230.4,273.9h-3.8v-12.3h-7.7V259h10.4c0.7,0,1,0.4,1,1.2v13.6H-230.4z M-238,273.9h-3.8 v-10.5h3.8V273.9z"></path><path id="XMLID_57_" class="st0" d="M-208,277.4h-3.8V259h3.8V277.4z"></path><path id="XMLID_59_" class="st0" d="M-197.1,273.9h-3.8V259h3.8V273.9z"></path><path id="XMLID_61_" class="st0" d="M-179.5,272.7c0,0.8-0.3,1.2-1,1.2h-9.5v-2.5h6.8v-9.9h-6.8v-2.5h9.5c0.7,0,1,0.4,1,1.2V272.7z"></path><path id="XMLID_63_" class="st0" d="M-159.5,272.7c0,0.8-0.3,1.2-1,1.2h-6.5v-2.5h3.7v-9.8h-3.9l-1.8,12.2h-3.8l2.1-12.3h-1.8v-2.6 h11.8c0.8,0,1.1,0.4,1.1,1.3L-159.5,272.7L-159.5,272.7z"></path><path id="XMLID_65_" class="st0" d="M-140.9,273.9h-3.8v-12.3h-7.3V259h10c0.7,0,1,0.4,1,1.2v13.6H-140.9z M-148.5,273.9h-3.5 v-10.5h3.5V273.9z"></path></g>
<g id="XMLID_2_"><g id="XMLID_14_"><g id="XMLID_15_"><path id="XMLID_18_" class="st2" d="M-147.2,302.1c-3.7,0-6.6,3-6.6,6.6s3,6.6,6.6,6.6s6.6-3,6.6-6.6 C-140.4,305-143.5,302.1-147.2,302.1z"></path></g></g></g>
<path class="st3" d="M-149,311.9v-6.5c0,0,0.9,0,2.2,0c2,0,2,1.5,2,1.9c0,0.5-0.3,1.8-2,1.8h-2.2"></path>
<line class="st3" x1="-145.1" y1="311.9" x2="-146.8" y2="309.2"></line>
</svg>
