<?xml version="1.0" encoding="utf-8"?>
<!-- Generator: Adobe Illustrator 19.0.0, SVG Export Plug-In . SVG Version: 6.00 Build 0)  -->
<svg version="1.1" id="Layer_1" xmlns="http://www.w3.org/2000/svg" xmlns:xlink="http://www.w3.org/1999/xlink" x="0px" y="0px"
	 viewBox="0 0 33.2 24.9" style="enable-background:new 0 0 33.2 24.9;" xml:space="preserve">
<style type="text/css">
	.st0{fill:#000066;}
</style>
<g id="XMLID_1_">
	<path id="XMLID_8_" class="st0" d="M0.5,8.2l15.7,6.6c0.1,0,0.2,0.1,0.3,0.1s0.2,0,0.3-0.1l15.7-6.6c0.3-0.1,0.5-0.4,0.5-0.8
		c0-0.3-0.2-0.6-0.5-0.8L16.9,0.1c-0.2-0.1-0.4-0.1-0.6,0L0.5,6.7C0.2,6.8,0,7.1,0,7.5C0,7.8,0.2,8.1,0.5,8.2z M16.6,1.7l13.6,5.7
		l-13.6,5.7L3,7.5L16.6,1.7z"/>
	<path id="XMLID_12_" class="st0" d="M0.5,13.2l15.7,6.6c0.1,0,0.2,0.1,0.3,0.1s0.2,0,0.3-0.1l15.7-6.6c0.4-0.2,0.6-0.7,0.4-1.1
		c-0.2-0.4-0.7-0.6-1.1-0.4l-15.4,6.5L1.2,11.7c-0.4-0.2-0.9,0-1.1,0.4C-0.1,12.5,0.1,13,0.5,13.2z"/>
	<path id="XMLID_13_" class="st0" d="M32,16.6l-15.4,6.5L1.2,16.6c-0.4-0.2-0.9,0-1.1,0.4c-0.2,0.4,0,0.9,0.4,1.1l15.7,6.6
		c0.1,0,0.2,0.1,0.3,0.1s0.2,0,0.3-0.1l15.7-6.6c0.4-0.2,0.6-0.7,0.4-1.1C32.9,16.7,32.4,16.5,32,16.6z"/>
</g>
</svg>
