
<svg version="1.1" id="Layer_1" xmlns="http://www.w3.org/2000/svg" xmlns:xlink="http://www.w3.org/1999/xlink" x="0px" y="0px"
	 viewBox="0 0 24.1 21.8" style="enable-background:new 0 0 24.1 21.8;" xml:space="preserve">
<style type="text/css">
	.st0{fill:#FFFFFF;}
</style>
<g>
	<path class="st0" d="M24,12.3L13.3,0.6C13,0.2,12.6,0,12.1,0l0,0c-0.5,0-0.9,0.2-1.3,0.6L0.2,12.3c-0.2,0.2-0.2,0.6,0,0.9
		c0.1,0.1,0.3,0.2,0.4,0.2c0.2,0,0.3-0.1,0.4-0.2l2.6-2.8V20c0,1,0.8,1.8,1.8,1.8h13.3c1,0,1.8-0.8,1.8-1.8v-9.7l2.6,2.8
		c0.2,0.2,0.6,0.3,0.9,0C24.2,13,24.2,12.6,24,12.3L24,12.3z M14.5,20.6H9.7v-5.4c0-0.3,0.3-0.6,0.6-0.6h3.6c0.3,0,0.6,0.3,0.6,0.6
		V20.6z M19.3,20c0,0.3-0.3,0.6-0.6,0.6h-3v-5.4c0-1-0.8-1.8-1.8-1.8h-3.6c-1,0-1.8,0.8-1.8,1.8v5.4h-3c-0.3,0-0.6-0.3-0.6-0.6V9
		l6.9-7.6c0.1-0.1,0.2-0.2,0.4-0.2c0.1,0,0.3,0.1,0.4,0.2L19.3,9V20z"/>
</g>
</svg>
