
<svg version="1.1" id="Layer_1" xmlns="http://www.w3.org/2000/svg" xmlns:xlink="http://www.w3.org/1999/xlink" x="0px" y="0px"
	 viewBox="-434 245.1 88.8 70.6" style="enable-background:new -434 245.1 88.8 70.6;" xml:space="preserve">
<style type="text/css">
	.st0{fill:#FFFFFF;}
	.st1{fill:#FFA801;}
	.st2{fill:none;stroke:#FFFFFF;stroke-width:1.5;stroke-miterlimit:10;}
	.st3{fill:none;stroke:#FFFFFF;stroke-width:1.5;stroke-linecap:round;stroke-miterlimit:10;}
</style>
<g id="XMLID_23_">
	<path id="XMLID_34_" class="st0" d="M-411.6,297.5h-10.7c0,0,0-4.7,0-10c0-6.4,4.4-13,4.4-16.2h11.2c0,5.2-4.9,11.6-4.9,18
		C-411.6,294.6-411.6,297.5-411.6,297.5"/>
	<path id="XMLID_32_" class="st0" d="M-397.6,297.5h-10.7c0,0,0-4.7,0-10c0-6.4,4.4-13,4.4-16.2h11.2c0,5.2-4.9,11.6-4.9,18
		C-397.6,294.6-397.6,297.5-397.6,297.5"/>
	<path id="XMLID_30_" class="st0" d="M-383.7,297.5h-10.7c0,0,0-4.7,0-10c0-6.4,4.4-13,4.4-16.2h11.2c0,5.2-4.9,11.6-4.9,18
		C-383.7,294.6-383.7,297.5-383.7,297.5"/>
	<path id="XMLID_28_" class="st0" d="M-404.9,263.2c0,3.3-2.7,6-6,6c-3.3,0-6-2.7-6-6c0-3.3,2.7-6,6-6
		C-407.6,257.2-404.9,259.9-404.9,263.2z"/>
	<path id="XMLID_26_" class="st0" d="M-391.4,263.2c0,3.3-2.7,6-6,6c-3.3,0-6-2.7-6-6c0-3.3,2.7-6,6-6
		C-394.1,257.2-391.4,259.9-391.4,263.2z"/>
	<path id="XMLID_24_" class="st0" d="M-378,263.2c0,3.3-2.7,6-6,6s-6-2.7-6-6c0-3.3,2.7-6,6-6S-378,259.9-378,263.2z"/>
</g>
<g id="XMLID_17_">
	<g id="XMLID_21_">
		<path id="XMLID_51_" class="st1" d="M-373.6,247.1c1.7,0,3.1,1.4,3.1,3.1v53.9c0,1.7-1.4,3.1-3.1,3.1h-55.3
			c-1.7,0-3.1-1.4-3.1-3.1v-53.9c0-1.7,1.4-3.1,3.1-3.1H-373.6 M-373.6,245.1h-55.3c-2.8,0-5.1,2.3-5.1,5.1v53.9
			c0,2.8,2.3,5.1,5.1,5.1h55.3c2.8,0,5.1-2.3,5.1-5.1v-53.9C-368.5,247.4-370.8,245.1-373.6,245.1L-373.6,245.1z"/>
	</g>
</g>
<g id="XMLID_1_">
	<g id="XMLID_3_">
		<g id="XMLID_4_">
			<path id="XMLID_5_" class="st2" d="M-352.6,301.7c-3.7,0-6.6,3-6.6,6.6c0,3.7,3,6.6,6.6,6.6s6.6-3,6.6-6.6
				C-345.9,304.7-349,301.7-352.6,301.7z"/>
		</g>
	</g>
</g>
<path class="st3" d="M-354.4,311.6v-6.5c0,0,0.9,0,2.2,0c2,0,2,1.5,2,1.9c0,0.5-0.3,1.8-2,1.8h-2.2"/>
<line class="st3" x1="-350.5" y1="311.6" x2="-352.2" y2="308.8"/>
</svg>
