<?xml version="1.0" encoding="utf-8"?>
<!-- Generator: Adobe Illustrator 19.0.0, SVG Export Plug-In . SVG Version: 6.00 Build 0)  -->
<svg version="1.1" id="Layer_1" xmlns="http://www.w3.org/2000/svg" xmlns:xlink="http://www.w3.org/1999/xlink" x="0px" y="0px"
	 viewBox="0 0 34.4 25.8" style="enable-background:new 0 0 34.4 25.8;" xml:space="preserve">
<style type="text/css">
	.st0{fill:#000066;}
</style>
<g id="XMLID_14_">
	<path id="XMLID_22_" class="st0" d="M32.8,19.2c-0.9-1.1-2.1-2-3.7-2.6c-1.8-0.8-4.1-1.1-6.8-1.1c-2.7,0-4.9,0.4-6.8,1.1
		c-1.5,0.6-2.8,1.5-3.7,2.6c-1.6,1.9-1.6,3.9-1.6,4c0,1.4,1.2,2.6,2.6,2.6h18.9c1.4,0,2.6-1.2,2.6-2.6
		C34.4,23.1,34.4,21.2,32.8,19.2z M31.8,24.1H12.9c-0.5,0-0.9-0.4-0.9-0.9c0-0.1,0.1-1.5,1.3-3c1.7-2,4.8-3,9-3c4.2,0,7.4,1,9.1,3
		c1.2,1.4,1.3,2.9,1.3,3C32.7,23.7,32.3,24.1,31.8,24.1z"/>
	<path id="XMLID_31_" class="st0" d="M22.4,13.8c3.8,0,6.9-3.1,6.9-6.9c0-3.8-3.1-6.9-6.9-6.9s-6.9,3.1-6.9,6.9
		C15.5,10.7,18.6,13.8,22.4,13.8z M22.4,1.7c2.8,0,5.2,2.3,5.2,5.2c0,2.8-2.3,5.2-5.2,5.2c-2.8,0-5.2-2.3-5.2-5.2
		C17.2,4,19.5,1.7,22.4,1.7z"/>
	<path id="XMLID_32_" class="st0" d="M9.5,17.2c-0.3,0-0.6,0-0.9,0c-1.9,0-3.5,0.3-4.8,0.9c-1.1,0.5-2,1.2-2.6,2
		C0,21.6,0,23.2,0,23.2c0,1.4,1.2,2.6,2.6,2.6h5.2l0,0c0.5,0,0.9-0.4,0.9-0.9c0-0.5-0.4-0.9-0.9-0.9H2.6c-0.5,0-0.9-0.4-0.9-0.9
		c0-0.2,0.2-4.3,6.9-4.3c0.3,0,0.6,0,0.8,0c0.5,0,0.9-0.3,0.9-0.8C10.3,17.7,10,17.3,9.5,17.2z"/>
	<path id="XMLID_35_" class="st0" d="M8.6,15.5c2.8,0,5.2-2.3,5.2-5.2c0-2.8-2.3-5.2-5.2-5.2c-2.8,0-5.2,2.3-5.2,5.2
		C3.4,13.2,5.8,15.5,8.6,15.5z M8.6,6.9c1.9,0,3.4,1.5,3.4,3.4s-1.5,3.4-3.4,3.4c-1.9,0-3.4-1.5-3.4-3.4S6.7,6.9,8.6,6.9z"/>
</g>
</svg>
