
<svg version="1.1" id="Layer_1" xmlns="http://www.w3.org/2000/svg" xmlns:xlink="http://www.w3.org/1999/xlink" x="0px" y="0px"
	 viewBox="0 0 24.9 23.2" style="enable-background:new 0 0 24.9 23.2;" xml:space="preserve">
<g id="XMLID_1_">
	<path id="XMLID_6_" d="M23,0H11.2c-1.1,0-2,0.9-2,2v3.9c0,0.4,0.3,0.7,0.7,0.7c0.4,0,0.7-0.3,0.7-0.7V2c0-0.4,0.3-0.7,0.7-0.7h9.9
		l-5,2.2c-0.9,0.4-1.6,1.5-1.6,2.4v12.5h-3.3c-0.4,0-0.7-0.3-0.7-0.7v-3.9c0-0.4-0.3-0.7-0.7-0.7c-0.4,0-0.7,0.3-0.7,0.7v3.9
		c0,1.1,0.9,2,2,2h3.3v2c0,0.6,0.2,1.1,0.6,1.3c0.2,0.2,0.5,0.2,0.8,0.2c0.2,0,0.5,0,0.7-0.1l6.8-2.9c0.9-0.4,1.6-1.5,1.6-2.4V2
		C24.9,0.9,24,0,23,0z M23.6,17.7c0,0.5-0.4,1-0.8,1.2L16,21.8c-0.1,0.1-0.2,0-0.2,0c0,0-0.1-0.1-0.1-0.2V5.9c0-0.5,0.4-1,0.8-1.2
		l7-3c0,0.1,0.1,0.2,0.1,0.3V17.7z"/>
	<path id="XMLID_10_" d="M11,9.4L11,9.4L7,5.4c-0.3-0.3-0.7-0.3-0.9,0c-0.3,0.3-0.3,0.7,0,0.9l2.8,2.8H0.7C0.3,9.2,0,9.5,0,9.8
		c0,0.4,0.3,0.7,0.7,0.7h8.3l-2.8,2.8c-0.3,0.3-0.3,0.7,0,0.9c0.1,0.1,0.3,0.2,0.5,0.2s0.3-0.1,0.5-0.2l3.9-3.9
		C11.2,10,11.2,9.6,11,9.4z"/>
</g>
</svg>
