
<svg version="1.1" id="Layer_1" xmlns="http://www.w3.org/2000/svg" xmlns:xlink="http://www.w3.org/1999/xlink" x="0px" y="0px"
	 viewBox="0 0 24 25.1" style="enable-background:new 0 0 24 25.1;" xml:space="preserve">
<style type="text/css">
	.st0{fill:#FFFFFF;}
</style>
<path id="XMLID_14_" class="st0" d="M23.6,22.5l-6.3-6.8c1.3-1.7,2.1-3.8,2.1-6c0-2.6-1-5-2.8-6.8C14.7,1,12.3,0,9.7,0
	c-2.6,0-5,1-6.8,2.8C1,4.7,0,7.1,0,9.7c0,2.6,1,5,2.8,6.8c1.8,1.8,4.3,2.8,6.8,2.8c1.9,0,3.7-0.5,5.3-1.6l6.3,6.8
	c0.3,0.3,0.7,0.5,1.2,0.5c0.4,0,0.8-0.1,1.1-0.4c0.3-0.3,0.5-0.7,0.5-1.1C24,23.2,23.9,22.8,23.6,22.5z M16.2,9.7
	c0,3.6-2.9,6.5-6.5,6.5s-6.5-2.9-6.5-6.5s2.9-6.5,6.5-6.5S16.2,6.1,16.2,9.7z"/>
</svg>
